<?xml version="1.0" encoding="UTF-8"?>
<!DOCTYPE svg PUBLIC "-//W3C//DTD SVG 1.1//EN" "http://www.w3.org/Graphics/SVG/1.1/DTD/svg11.dtd">
<svg xmlns="http://www.w3.org/2000/svg" version="1.1" width="322px" height="183px" style="shape-rendering:geometricPrecision; text-rendering:geometricPrecision; image-rendering:optimizeQuality; fill-rule:evenodd; clip-rule:evenodd" xmlns:xlink="http://www.w3.org/1999/xlink">
<g><path style="opacity:1" fill="#fefefe" d="M -0.5,-0.5 C 106.833,-0.5 214.167,-0.5 321.5,-0.5C 321.5,60.5 321.5,121.5 321.5,182.5C 214.167,182.5 106.833,182.5 -0.5,182.5C -0.5,121.5 -0.5,60.5 -0.5,-0.5 Z"/></g>
<g><path style="opacity:1" fill="#ed5c2f" d="M 155.5,27.5 C 158.167,27.5 160.833,27.5 163.5,27.5C 163.5,32.8333 163.5,38.1667 163.5,43.5C 171.58,44.5493 179.58,46.0493 187.5,48C 189.833,50.3333 192.167,52.6667 194.5,55C 187.953,56.8882 181.286,58.2215 174.5,59C 163.655,70.678 152.655,82.178 141.5,93.5C 122.965,72.4636 104.965,50.9636 87.5,29C 107.128,32.4146 126.795,35.9146 146.5,39.5C 146.337,41.8568 146.503,44.1902 147,46.5C 149.421,47.9606 151.921,49.2939 154.5,50.5C 155.497,42.8622 155.831,35.1955 155.5,27.5 Z"/></g>
<g><path style="opacity:1" fill="#65a8ad" d="M 78.5,37.5 C 81.4639,39.9619 84.2972,42.6286 87,45.5C 87.6667,46.5 87.6667,47.5 87,48.5C 74.2907,62.8738 61.9574,77.5405 50,92.5C 49.2585,95.562 49.4252,98.562 50.5,101.5C 42.8301,102.263 35.1635,101.93 27.5,100.5C 44.2686,79.2862 61.2686,58.2862 78.5,37.5 Z"/></g>
<g><path style="opacity:1" fill="#ffce6e" d="M 242.5,51.5 C 243.552,51.3505 244.552,51.5172 245.5,52C 232.5,67.6667 219.5,83.3333 206.5,99C 185.833,99.6667 165.167,99.6667 144.5,99C 155.863,87.9708 166.863,76.6375 177.5,65C 199.301,60.5408 220.968,56.0408 242.5,51.5 Z"/></g>
<g><path style="opacity:1" fill="#68aaaf" d="M 250.5,58.5 C 262.53,71.5426 273.864,85.2093 284.5,99.5C 279.673,101.243 274.673,101.91 269.5,101.5C 270.167,99.1806 270.334,96.8473 270,94.5C 262,85.1667 254,75.8333 246,66.5C 245.333,65.1667 245.333,63.8333 246,62.5C 247.992,61.6719 249.492,60.3386 250.5,58.5 Z"/></g>
<g><path style="opacity:1" fill="#68aaaf" d="M 89.5,63.5 C 90.5,63.5 91.5,63.5 92.5,63.5C 92.5,67.5 92.5,71.5 92.5,75.5C 88.8333,75.5 85.1667,75.5 81.5,75.5C 81.6759,69.8089 84.3426,65.8089 89.5,63.5 Z"/></g>
<g><path style="opacity:1" fill="#68aaaf" d="M 95.5,63.5 C 101.957,64.9562 105.623,68.9562 106.5,75.5C 102.833,75.5 99.1667,75.5 95.5,75.5C 95.5,71.5 95.5,67.5 95.5,63.5 Z"/></g>
<g><path style="opacity:1" fill="#63a8ad" d="M 81.5,77.5 C 85.1667,77.5 88.8333,77.5 92.5,77.5C 92.5,81.5 92.5,85.5 92.5,89.5C 88.8333,89.5 85.1667,89.5 81.5,89.5C 81.5,85.5 81.5,81.5 81.5,77.5 Z"/></g>
<g><path style="opacity:1" fill="#6dadb2" d="M 236.5,76.5 C 237.5,76.5 238.5,76.5 239.5,76.5C 239.5,78.8333 239.5,81.1667 239.5,83.5C 237.167,83.5 234.833,83.5 232.5,83.5C 232.961,80.6967 234.295,78.3634 236.5,76.5 Z"/></g>
<g><path style="opacity:1" fill="#69abaf" d="M 95.5,77.5 C 99.5,77.5 103.5,77.5 107.5,77.5C 107.5,81.8333 107.5,86.1667 107.5,90.5C 103.5,90.5 99.5,90.5 95.5,90.5C 95.5,86.1667 95.5,81.8333 95.5,77.5 Z"/></g>
<g><path style="opacity:1" fill="#78b3b7" d="M 240.5,76.5 C 244.5,77.1667 246.833,79.5 247.5,83.5C 245.167,83.5 242.833,83.5 240.5,83.5C 240.5,81.1667 240.5,78.8333 240.5,76.5 Z"/></g>
<g><path style="opacity:1" fill="#65a9ae" d="M 240.5,84.5 C 242.833,84.5 245.167,84.5 247.5,84.5C 247.5,86.8333 247.5,89.1667 247.5,91.5C 245.167,91.5 242.833,91.5 240.5,91.5C 240.5,89.1667 240.5,86.8333 240.5,84.5 Z"/></g>
<g><path style="opacity:1" fill="#6fafb4" d="M 232.5,84.5 C 234.833,84.5 237.167,84.5 239.5,84.5C 239.5,87.1667 239.5,89.8333 239.5,92.5C 237.167,92.5 234.833,92.5 232.5,92.5C 232.5,89.8333 232.5,87.1667 232.5,84.5 Z"/></g>
<g><path style="opacity:1" fill="#6dacb1" d="M 87.5,123.5 C 88.8333,123.5 90.1667,123.5 91.5,123.5C 91.5,124.5 91.5,125.5 91.5,126.5C 90.1667,126.5 88.8333,126.5 87.5,126.5C 87.5,125.5 87.5,124.5 87.5,123.5 Z"/></g>
<g><path style="opacity:1" fill="#73b0b4" d="M 18.5,123.5 C 19.8333,123.5 21.1667,123.5 22.5,123.5C 22.5,126.167 22.5,128.833 22.5,131.5C 24.8333,131.5 27.1667,131.5 29.5,131.5C 29.5,128.833 29.5,126.167 29.5,123.5C 30.5,123.5 31.5,123.5 32.5,123.5C 32.5,129.833 32.5,136.167 32.5,142.5C 31.5,142.5 30.5,142.5 29.5,142.5C 29.5,139.833 29.5,137.167 29.5,134.5C 27.1667,134.5 24.8333,134.5 22.5,134.5C 22.5,137.167 22.5,139.833 22.5,142.5C 21.1667,142.5 19.8333,142.5 18.5,142.5C 18.5,136.167 18.5,129.833 18.5,123.5 Z"/></g>
<g><path style="opacity:1" fill="#6dacb1" d="M 100.5,123.5 C 101.833,123.5 103.167,123.5 104.5,123.5C 104.52,125.143 103.853,126.476 102.5,127.5C 103.325,128.386 104.325,128.719 105.5,128.5C 105.5,129.5 105.5,130.5 105.5,131.5C 104.167,131.5 102.833,131.5 101.5,131.5C 101.5,135.167 101.5,138.833 101.5,142.5C 100.5,142.5 99.5,142.5 98.5,142.5C 98.9459,138.123 98.2792,133.956 96.5,130C 97.932,127.833 99.2654,125.667 100.5,123.5 Z"/></g>
<g><path style="opacity:1" fill="#69aaaf" d="M 135.5,123.5 C 138.85,123.335 142.183,123.502 145.5,124C 149.411,127.533 149.411,131.2 145.5,135C 146.783,137.005 147.783,139.172 148.5,141.5C 147.5,142.833 146.5,142.833 145.5,141.5C 144.5,139.5 143.5,137.5 142.5,135.5C 141.311,134.571 139.978,134.238 138.5,134.5C 138.5,137.167 138.5,139.833 138.5,142.5C 137.5,142.5 136.5,142.5 135.5,142.5C 135.5,136.167 135.5,129.833 135.5,123.5 Z"/></g>
<g><path style="opacity:1" fill="#62a6ab" d="M 188.5,123.5 C 189.5,123.5 190.5,123.5 191.5,123.5C 191.5,129.833 191.5,136.167 191.5,142.5C 190.5,142.5 189.5,142.5 188.5,142.5C 188.5,136.167 188.5,129.833 188.5,123.5 Z"/></g>
<g><path style="opacity:1" fill="#6eadb2" d="M 206.5,123.5 C 210.833,123.5 215.167,123.5 219.5,123.5C 219.5,124.5 219.5,125.5 219.5,126.5C 216.167,126.5 212.833,126.5 209.5,126.5C 209.5,128.167 209.5,129.833 209.5,131.5C 211.833,131.5 214.167,131.5 216.5,131.5C 216.5,132.5 216.5,133.5 216.5,134.5C 214.167,134.5 211.833,134.5 209.5,134.5C 209.5,136.167 209.5,137.833 209.5,139.5C 212.833,139.5 216.167,139.5 219.5,139.5C 219.5,140.5 219.5,141.5 219.5,142.5C 215.167,142.5 210.833,142.5 206.5,142.5C 206.5,136.167 206.5,129.833 206.5,123.5 Z"/></g>
<g><path style="opacity:1" fill="#73b0b4" d="M 241.5,124.5 C 242.5,124.5 243.5,124.5 244.5,124.5C 244.5,125.833 244.5,127.167 244.5,128.5C 245.833,128.5 247.167,128.5 248.5,128.5C 248.5,129.5 248.5,130.5 248.5,131.5C 247.167,131.5 245.833,131.5 244.5,131.5C 244.5,134.167 244.5,136.833 244.5,139.5C 245.5,139.5 246.5,139.5 247.5,139.5C 247.5,140.5 247.5,141.5 247.5,142.5C 245.278,142.822 243.444,142.155 242,140.5C 241.9,136.798 241.067,133.298 239.5,130C 240.885,128.403 241.551,126.57 241.5,124.5 Z"/></g>
<g><path style="opacity:1" fill="#6dadb1" d="M 271.5,125.5 C 272.5,125.5 273.5,125.5 274.5,125.5C 274.5,126.5 274.5,127.5 274.5,128.5C 275.5,128.5 276.5,128.5 277.5,128.5C 277.5,129.5 277.5,130.5 277.5,131.5C 276.5,131.5 275.5,131.5 274.5,131.5C 274.5,134.167 274.5,136.833 274.5,139.5C 275.5,139.5 276.5,139.5 277.5,139.5C 277.5,140.5 277.5,141.5 277.5,142.5C 275.533,142.739 273.699,142.406 272,141.5C 271.928,137.469 271.094,133.636 269.5,130C 270.707,128.7 271.374,127.2 271.5,125.5 Z"/></g>
<g><path style="opacity:1" fill="#fbfdfd" d="M 138.5,126.5 C 140.527,126.338 142.527,126.505 144.5,127C 145.833,128.333 145.833,129.667 144.5,131C 142.527,131.495 140.527,131.662 138.5,131.5C 138.5,129.833 138.5,128.167 138.5,126.5 Z"/></g>
<g><path style="opacity:1" fill="#6aabaf" d="M 73.5,128.5 C 76.2724,128.22 78.7724,128.887 81,130.5C 81.4988,134.486 81.6655,138.486 81.5,142.5C 78.0678,142.41 74.5678,142.076 71,141.5C 69.8012,135.487 72.3012,133.153 78.5,134.5C 78.5,133.5 78.5,132.5 78.5,131.5C 75.7557,132.205 73.089,132.205 70.5,131.5C 71.3398,130.265 72.3398,129.265 73.5,128.5 Z"/></g>
<g><path style="opacity:1" fill="#6eadb1" d="M 157.5,128.5 C 163.639,127.726 166.639,130.392 166.5,136.5C 163.428,136.183 160.428,136.516 157.5,137.5C 159.315,139.694 161.482,140.028 164,138.5C 165.824,139.749 165.657,140.915 163.5,142C 155.424,143.073 152.591,139.573 155,131.5C 156.045,130.627 156.878,129.627 157.5,128.5 Z"/></g>
<g><path style="opacity:1" fill="#6dacb1" d="M 173.5,128.5 C 176.602,128.154 179.435,128.821 182,130.5C 182.499,134.486 182.666,138.486 182.5,142.5C 179.316,142.167 175.982,142 172.5,142C 169.833,139.667 169.833,137.333 172.5,135C 174.9,134.814 177.234,134.314 179.5,133.5C 179.113,132.28 178.28,131.613 177,131.5C 172.231,133.262 171.064,132.262 173.5,128.5 Z"/></g>
<g><path style="opacity:1" fill="#6cacb0" d="M 38.5,128.5 C 39.5,128.5 40.5,128.5 41.5,128.5C 41.335,131.85 41.5017,135.183 42,138.5C 43.3561,139.38 44.8561,139.714 46.5,139.5C 46.5,135.833 46.5,132.167 46.5,128.5C 47.5,128.5 48.5,128.5 49.5,128.5C 49.5,133.167 49.5,137.833 49.5,142.5C 46.4816,142.665 43.4816,142.498 40.5,142C 40,141.5 39.5,141 39,140.5C 38.5012,136.514 38.3345,132.514 38.5,128.5 Z"/></g>
<g><path style="opacity:1" fill="#6cacb0" d="M 55.5,128.5 C 58.8333,128.5 62.1667,128.5 65.5,128.5C 65.6567,129.873 65.49,131.207 65,132.5C 62.7911,134.373 60.9578,136.54 59.5,139C 61.4727,139.495 63.4727,139.662 65.5,139.5C 65.5,140.5 65.5,141.5 65.5,142.5C 61.8333,142.5 58.1667,142.5 54.5,142.5C 56.1518,138.656 58.4851,135.156 61.5,132C 59.5273,131.505 57.5273,131.338 55.5,131.5C 55.5,130.5 55.5,129.5 55.5,128.5 Z"/></g>
<g><path style="opacity:1" fill="#8bbdc1" d="M 87.5,128.5 C 88.8333,128.5 90.1667,128.5 91.5,128.5C 91.5,133.167 91.5,137.833 91.5,142.5C 90.1667,142.5 88.8333,142.5 87.5,142.5C 87.5,137.833 87.5,133.167 87.5,128.5 Z"/></g>
<g><path style="opacity:1" fill="#6eadb1" d="M 112.5,128.5 C 115.97,127.875 118.804,128.875 121,131.5C 121.499,135.152 121.665,138.818 121.5,142.5C 118.991,141.325 116.491,141.325 114,142.5C 109.245,141.313 108.411,138.813 111.5,135C 113.473,134.505 115.473,134.338 117.5,134.5C 117.5,133.5 117.5,132.5 117.5,131.5C 114.824,132.008 112.157,132.175 109.5,132C 110.365,130.641 111.365,129.474 112.5,128.5 Z"/></g>
<g><path style="opacity:1" fill="#6fadb2" d="M 226.5,128.5 C 229.365,128.055 231.865,128.722 234,130.5C 234.591,131.483 234.257,132.15 233,132.5C 231.118,131.394 229.284,131.394 227.5,132.5C 229.793,134.052 232.293,135.385 235,136.5C 235.825,138.701 235.325,140.534 233.5,142C 230.331,142.978 227.497,142.478 225,140.5C 224.409,139.517 224.743,138.85 226,138.5C 228.103,140.662 230.27,140.829 232.5,139C 229.793,137.872 227.293,136.372 225,134.5C 224.252,132.16 224.752,130.16 226.5,128.5 Z"/></g>
<g><path style="opacity:1" fill="#6aaaaf" d="M 255.5,128.5 C 258.482,128.104 261.149,128.771 263.5,130.5C 264.433,134.429 264.766,138.429 264.5,142.5C 261.991,141.325 259.491,141.325 257,142.5C 252.245,141.313 251.411,138.813 254.5,135C 256.9,134.814 259.234,134.314 261.5,133.5C 261.291,132.914 260.957,132.414 260.5,132C 258.064,132.053 255.731,131.887 253.5,131.5C 254.193,130.482 254.859,129.482 255.5,128.5 Z"/></g>
<g><path style="opacity:1" fill="#6cacb0" d="M 285.5,128.5 C 291.675,127.677 294.675,130.344 294.5,136.5C 291.428,136.183 288.428,136.516 285.5,137.5C 287.45,139.753 289.784,140.086 292.5,138.5C 294.946,139.983 294.612,141.149 291.5,142C 285.865,143.536 282.865,141.369 282.5,135.5C 282.695,132.782 283.695,130.449 285.5,128.5 Z"/></g>
<g><path style="opacity:1" fill="#f7fafa" d="M 158.5,131.5 C 160.346,131.222 161.68,131.889 162.5,133.5C 160.833,134.833 159.167,134.833 157.5,133.5C 157.863,132.817 158.196,132.15 158.5,131.5 Z"/></g>
<g><path style="opacity:1" fill="#e4eff0" d="M 286.5,131.5 C 288.665,131.116 290.332,131.783 291.5,133.5C 289.5,134.833 287.5,134.833 285.5,133.5C 285.863,132.817 286.196,132.15 286.5,131.5 Z"/></g>
<g><path style="opacity:1" fill="#f1f7f7" d="M 74.5,136.5 C 75.8333,136.5 77.1667,136.5 78.5,136.5C 78.1144,140.738 76.4477,141.404 73.5,138.5C 73.8627,137.817 74.1961,137.15 74.5,136.5 Z"/></g>
<g><path style="opacity:1" fill="#f0f6f7" d="M 113.5,136.5 C 114.833,136.5 116.167,136.5 117.5,136.5C 117.114,140.738 115.448,141.404 112.5,138.5C 112.863,137.817 113.196,137.15 113.5,136.5 Z"/></g>
<g><path style="opacity:1" fill="#f0f6f7" d="M 174.5,136.5 C 176.288,136.215 177.955,136.548 179.5,137.5C 178.579,139.756 176.912,140.756 174.5,140.5C 174.5,139.167 174.5,137.833 174.5,136.5 Z"/></g>
<g><path style="opacity:1" fill="#e9f2f3" d="M 256.5,136.5 C 262.418,136.352 262.918,137.686 258,140.5C 255.5,139.842 255,138.509 256.5,136.5 Z"/></g>
</svg>
